<svg width="180" height="51" viewBox="0 0 180 51" fill="none" xmlns="http://www.w3.org/2000/svg">
    <path
        d="M45.5919 30.2275C43.5719 30.2275 41.6844 28.2298 38.0176 24.5379L34.4614 21.0384C34.4631 16.0482 34.4661 9.31983 34.4705 8.91629C34.6675 5.09738 37.8175 2.10756 41.648 2.10756C45.6105 2.10756 48.8347 5.33183 48.8347 9.29948C48.8354 9.40753 48.8837 19.0644 48.8923 25.5888C48.8803 28.2541 48.2964 30.2275 45.5919 30.2275ZM16.5566 41.7055C16.5566 45.6687 13.3326 48.8923 9.36938 48.8923C6.12336 48.8923 3.26806 46.7064 2.42752 43.5755C2.26035 42.9526 2.12625 42.1277 2.1229 41.6972C2.0999 38.9001 2.11031 32.6425 2.11719 28.073C2.11954 26.6948 2.12189 25.4452 2.12222 24.4424C2.26136 21.5526 3.48105 20.754 5.26083 20.4807C6.94778 20.2179 9.43533 22.3782 12.9878 25.9787C13.9145 26.9175 15.1484 28.1666 16.5566 29.5926V41.7055ZM50.9421 9.29415C50.9421 4.16975 46.7728 0 41.648 0C36.6873 0 32.6098 3.87794 32.3649 8.82858C32.3599 8.93397 32.3564 13.7327 32.355 18.9657L16.1723 3.04252C14.4146 1.10872 11.909 0.000667572 9.29284 0.000667572C6.98957 0.000667572 4.77829 0.851261 3.06699 2.39587C1.17326 4.10589 0.0601431 6.54527 0.00576299 9.09738C0.00341323 9.12439 0.00207101 9.15074 0.00207101 9.17825C0.00207101 9.17825 -0.00783055 38.9073 0.015667 41.7149C0.0217092 42.428 0.214892 43.4624 0.392298 44.1214C1.47973 48.1714 5.17137 51 9.36938 51C14.4942 51 18.6638 46.8307 18.6638 41.7055V31.7254C25.3741 38.5168 34.1897 47.4332 34.1897 47.4332C37.9325 51.2836 44.0909 51.655 47.9352 48.1824C49.8657 46.4404 50.9827 43.9476 51 41.3375C51 41.3375 50.9424 9.39687 50.9421 9.29415Z"
        fill="#44403C" />
    <path
        d="M63.432 36V14.048H67.816L76.648 25.888C76.776 26.0373 76.936 26.2507 77.128 26.528C77.32 26.784 77.5013 27.04 77.672 27.296C77.8427 27.552 77.96 27.7547 78.024 27.904H78.184C78.184 27.5413 78.184 27.1893 78.184 26.848C78.184 26.4853 78.184 26.1653 78.184 25.888V14.048H82.696V36H78.312L69.288 23.872C69.0747 23.5733 68.8507 23.2427 68.616 22.88C68.3813 22.5173 68.2107 22.24 68.104 22.048H67.944C67.944 22.368 67.944 22.688 67.944 23.008C67.944 23.3067 67.944 23.5947 67.944 23.872V36H63.432Z"
        fill="#44403C" />
    <path
        d="M94.917 36.384C93.0823 36.384 91.525 36.0747 90.245 35.456C88.965 34.816 87.9943 33.8453 87.333 32.544C86.6717 31.2213 86.341 29.568 86.341 27.584C86.341 25.5573 86.6717 23.904 87.333 22.624C87.9943 21.3227 88.965 20.3627 90.245 19.744C91.525 19.104 93.0823 18.784 94.917 18.784C96.7943 18.784 98.3623 19.104 99.621 19.744C100.901 20.3627 101.872 21.3227 102.533 22.624C103.194 23.904 103.525 25.5573 103.525 27.584C103.525 29.568 103.194 31.2213 102.533 32.544C101.872 33.8453 100.901 34.816 99.621 35.456C98.3623 36.0747 96.7943 36.384 94.917 36.384ZM94.917 32.928C95.8983 32.928 96.677 32.7467 97.253 32.384C97.8503 32.0213 98.2877 31.4667 98.565 30.72C98.8423 29.9733 98.981 29.056 98.981 27.968V27.2C98.981 26.112 98.8423 25.1947 98.565 24.448C98.2877 23.7013 97.8503 23.1467 97.253 22.784C96.677 22.4 95.8983 22.208 94.917 22.208C93.957 22.208 93.1783 22.4 92.581 22.784C92.005 23.1467 91.5783 23.7013 91.301 24.448C91.0237 25.1947 90.885 26.112 90.885 27.2V27.968C90.885 29.056 91.0237 29.9733 91.301 30.72C91.5783 31.4667 92.005 32.0213 92.581 32.384C93.1783 32.7467 93.957 32.928 94.917 32.928Z"
        fill="#44403C" />
    <path
        d="M111.822 36.384C110.755 36.384 109.891 36.192 109.23 35.808C108.569 35.424 108.089 34.912 107.79 34.272C107.491 33.6107 107.342 32.8853 107.342 32.096V22.592H105.262V19.168H107.502L108.334 14.368H111.79V19.168H114.862V22.592H111.79V31.36C111.79 31.872 111.907 32.2667 112.142 32.544C112.377 32.8 112.761 32.928 113.294 32.928H114.862V35.872C114.606 35.9573 114.307 36.032 113.966 36.096C113.625 36.1813 113.262 36.2453 112.878 36.288C112.494 36.352 112.142 36.384 111.822 36.384Z"
        fill="#44403C" />
    <path
        d="M125.384 36.384C123.528 36.384 121.97 36.0747 120.712 35.456C119.453 34.816 118.504 33.8453 117.864 32.544C117.224 31.2427 116.904 29.5893 116.904 27.584C116.904 25.5573 117.224 23.904 117.864 22.624C118.504 21.3227 119.442 20.3627 120.68 19.744C121.938 19.104 123.474 18.784 125.288 18.784C126.994 18.784 128.434 19.0933 129.608 19.712C130.781 20.3093 131.666 21.248 132.264 22.528C132.861 23.7867 133.16 25.4187 133.16 27.424V28.576H121.416C121.458 29.5573 121.608 30.3893 121.864 31.072C122.141 31.7547 122.557 32.2667 123.112 32.608C123.688 32.928 124.445 33.088 125.384 33.088C125.896 33.088 126.354 33.024 126.76 32.896C127.186 32.768 127.549 32.576 127.848 32.32C128.146 32.064 128.381 31.744 128.552 31.36C128.722 30.976 128.808 30.5387 128.808 30.048H133.16C133.16 31.1147 132.968 32.0427 132.584 32.832C132.2 33.6213 131.666 34.2827 130.984 34.816C130.301 35.328 129.48 35.7227 128.52 36C127.581 36.256 126.536 36.384 125.384 36.384ZM121.48 25.76H128.584C128.584 25.12 128.498 24.5653 128.328 24.096C128.178 23.6267 127.965 23.2427 127.688 22.944C127.41 22.6453 127.069 22.432 126.664 22.304C126.28 22.1547 125.842 22.08 125.352 22.08C124.541 22.08 123.858 22.2187 123.304 22.496C122.77 22.752 122.354 23.1573 122.056 23.712C121.778 24.2453 121.586 24.928 121.48 25.76Z"
        fill="#44403C" />
    <path
        d="M142.375 36.384C140.988 36.384 139.783 36.0747 138.759 35.456C137.756 34.816 136.978 33.8453 136.423 32.544C135.868 31.2427 135.591 29.5787 135.591 27.552C135.591 25.5253 135.868 23.872 136.423 22.592C136.999 21.2907 137.778 20.3307 138.759 19.712C139.762 19.0933 140.914 18.784 142.215 18.784C142.94 18.784 143.612 18.8693 144.231 19.04C144.871 19.1893 145.426 19.4347 145.895 19.776C146.386 20.1173 146.802 20.5333 147.143 21.024H147.335V12.864H151.783V36H148.135L147.783 33.728H147.559C147.004 34.624 146.279 35.296 145.383 35.744C144.487 36.1707 143.484 36.384 142.375 36.384ZM143.783 32.736C144.615 32.736 145.287 32.544 145.799 32.16C146.332 31.776 146.727 31.2213 146.983 30.496C147.239 29.7707 147.367 28.9067 147.367 27.904V27.328C147.367 26.5813 147.292 25.8987 147.143 25.28C147.015 24.6613 146.802 24.1493 146.503 23.744C146.204 23.3173 145.831 22.9973 145.383 22.784C144.935 22.5493 144.402 22.432 143.783 22.432C142.887 22.432 142.172 22.6133 141.639 22.976C141.106 23.3173 140.722 23.8507 140.487 24.576C140.252 25.28 140.135 26.1653 140.135 27.232V27.968C140.135 29.0347 140.252 29.92 140.487 30.624C140.722 31.328 141.106 31.8613 141.639 32.224C142.172 32.5653 142.887 32.736 143.783 32.736Z"
        fill="#44403C" />
    <path d="M155.892 36V12.864H160.34V36H155.892Z" fill="#44403C" />
    <path
        d="M166.855 42.016C166.066 42.016 165.404 41.952 164.871 41.824C164.359 41.7173 164.028 41.6427 163.879 41.6V38.592H165.831C166.364 38.592 166.844 38.464 167.271 38.208C167.698 37.9733 168.071 37.6533 168.391 37.248C168.711 36.864 168.946 36.448 169.095 36L162.503 19.168H167.207L170.087 26.944C170.215 27.3067 170.354 27.7653 170.503 28.32C170.674 28.8533 170.844 29.4187 171.015 30.016C171.186 30.592 171.324 31.104 171.431 31.552H171.591C171.676 31.2533 171.772 30.9013 171.879 30.496C171.986 30.0907 172.092 29.6747 172.199 29.248C172.327 28.8213 172.444 28.416 172.551 28.032C172.679 27.6267 172.786 27.2747 172.871 26.976L175.271 19.168H179.751L174.023 35.2C173.703 36.1387 173.33 37.0133 172.903 37.824C172.498 38.656 172.018 39.3813 171.463 40C170.908 40.64 170.247 41.1307 169.479 41.472C168.732 41.8347 167.858 42.016 166.855 42.016Z"
        fill="#44403C" />
</svg>